<svg width="70" height="28" viewBox="0 0 70 28" fill="none" xmlns="http://www.w3.org/2000/svg">
<path d="M20.2571 4.0543C19.2476 1.66363 16.8742 0.14502 14.2894 0.14502L5.71211 0.14502L7.90768 4.28111L14.3737 4.28111C15.7855 4.28111 16.3409 5.36174 16.4772 5.69283C16.6134 6.02393 16.9819 7.18407 15.9841 8.18648C15.0848 9.08983 13.8884 9.58777 12.6154 9.58777L10.0332 9.58777L10.0332 9.58647L10.4705 8.82782L12.4182 5.43865L7.66243 5.43865L5.27741 9.58908L2.37464 9.58908L-1.94603e-09 13.7252L2.90147 13.7252L0.826583 17.3346L3.88118 17.3346C4.93225 17.3346 5.90416 16.7715 6.43099 15.8564L7.65595 13.7252L12.6154 13.7252C14.9875 13.7252 17.2181 12.7971 18.8946 11.1116C20.7736 9.22539 21.2978 6.51536 20.2571 4.0543Z" fill="white"/>
<path d="M32.6871 17.3605L29.8025 1.75725C29.6273 0.808279 28.802 0.118713 27.8418 0.118713L24.5809 0.118713L24.4356 0.392454L15.8155 16.5914L15.4067 17.3605L20.3546 17.3605L22.1375 13.8892L27.241 13.8892L27.7406 16.9251L27.812 17.3605L32.6871 17.3605ZM24.0865 10.0933L26.029 6.27918L26.6571 10.0933L24.0865 10.0933Z" fill="white"/>
<path d="M38.3473 17.3605C39.2686 17.3605 40.2172 17.2432 41.1657 17.0098C42.1195 16.7765 43.0512 16.4102 43.9335 15.9188C44.825 15.4234 45.636 14.7717 46.3419 13.9843C47.0543 13.1905 47.6227 12.222 48.0327 11.1088C48.4415 9.99945 48.6478 8.70375 48.6478 7.25944C48.6478 5.81513 48.3792 4.60937 47.8484 3.55221C47.306 2.47288 46.4691 1.61907 45.3583 1.01424C44.2657 0.419828 42.8526 0.118713 41.1592 0.118713L34.8969 0.118713L31.9033 17.3605L38.3473 17.3605ZM42.7657 11.4724C42.3764 11.9743 41.8457 12.3823 41.1865 12.6847C40.5182 12.991 39.6709 13.1475 38.6665 13.1475L37.269 13.1475L38.8235 4.28609L40.4261 4.28609C41.6264 4.28609 42.5204 4.55462 43.081 5.08385C43.6325 5.60265 43.9115 6.45125 43.9115 7.60618C43.9115 8.32703 43.818 9.03484 43.6325 9.71137C43.4534 10.367 43.1615 10.9588 42.7631 11.4724L42.7657 11.4724Z" fill="white"/>
<path d="M61.0428 0.118713L49.5744 0.118713L49.4991 0.548878L46.6639 16.7478L46.5562 17.3605L57.486 17.3605L57.5638 16.9329L58.1348 13.7862L58.2464 13.1709L51.9633 13.1709L52.4292 10.3957L55.9444 10.3957L56.0171 9.96165L56.5426 6.81493L56.6438 6.20619L53.1312 6.20619L53.4556 4.30956L60.8715 4.30956L60.9519 3.88591L61.5462 0.739193L61.663 0.120017L61.0402 0.120017L61.0428 0.118713Z" fill="white"/>
<path d="M70.0002 13.1474L63.4576 13.1474L65.2379 2.89775C65.4897 1.44693 64.3789 0.119934 62.9126 0.119934L61.0856 0.119934L58.0439 17.3617L69.2398 17.3617L69.9989 13.1487L70.0002 13.1474Z" fill="white"/>
<path d="M24.5548 0.14502L21.9829 0.14502L24.5548 1.62061L24.5548 0.14502Z" fill="white"/>
<path d="M49.5704 0.14502L46.9985 0.14502L49.5704 1.62061L49.5704 0.14502Z" fill="white"/>
<path d="M45.519 19.2154L48.4127 19.2154C49.2679 19.2154 49.9686 19.3575 50.5136 19.6416C51.0586 19.9258 51.4621 20.3247 51.7242 20.8396C51.9864 21.3545 52.1174 21.9684 52.1174 22.6828C52.1174 23.3971 52.0188 24.0163 51.8203 24.5677C51.6217 25.1191 51.3518 25.5936 51.0093 25.9911C50.6667 26.3887 50.2722 26.7146 49.8284 26.9701C49.3846 27.2256 48.9136 27.4159 48.4179 27.5423C47.9209 27.6675 47.4226 27.7313 46.9218 27.7313L44.0281 27.7313L45.5177 19.2154L45.519 19.2154ZM47.0814 26.3926C47.7107 26.3926 48.244 26.2949 48.68 26.1006C49.116 25.9064 49.469 25.6379 49.7402 25.2977C50.0101 24.9574 50.2086 24.5742 50.3332 24.1479C50.4578 23.7217 50.5214 23.2785 50.5214 22.8157C50.5214 22.0532 50.328 21.4835 49.94 21.1068C49.552 20.7301 48.9435 20.5411 48.1117 20.5411L46.84 20.5411L45.811 26.3926L47.0827 26.3926L47.0814 26.3926Z" fill="white"/>
<path d="M51.4167 27.7313L56.0064 19.2154L57.7621 19.2154L59.3608 27.7313L57.7258 27.7313L57.3871 25.7604L54.0808 25.7604L53.0517 27.7313L51.4167 27.7313ZM54.6984 24.569L57.1937 24.569L56.5761 20.9686L54.6984 24.569Z" fill="white"/>
<path d="M63.4418 27.8778C62.8604 27.8778 62.344 27.7788 61.8911 27.5793C61.4382 27.3812 61.0554 27.1087 60.7401 26.7646C60.4248 26.4205 60.1873 26.0281 60.0251 25.5901C59.8629 25.1521 59.7825 24.6894 59.7825 24.2032C59.7825 23.4901 59.9135 22.8227 60.1756 22.2023C60.4378 21.5818 60.8011 21.0369 61.2657 20.5663C61.7302 20.0958 62.2713 19.7295 62.889 19.4649C63.5066 19.2015 64.1671 19.0699 64.8691 19.0699C65.4829 19.0699 66.0201 19.1729 66.4795 19.3801C66.9401 19.5874 67.3216 19.865 67.624 20.2131C67.9263 20.5624 68.1521 20.9548 68.3026 21.3928C68.4519 21.8308 68.5271 22.2766 68.5271 22.7315C68.5271 23.4458 68.3961 24.1145 68.1339 24.7389C67.8718 25.3633 67.5085 25.9108 67.0439 26.3814C66.5794 26.8519 66.0409 27.2182 65.4271 27.4829C64.8133 27.7462 64.1516 27.8778 63.4405 27.8778L63.4418 27.8778ZM63.6351 26.4661C64.0958 26.4661 64.5227 26.3735 64.9184 26.1858C65.3142 25.9994 65.6633 25.7413 65.9656 25.4128C66.268 25.0844 66.5041 24.7011 66.6741 24.2631C66.8441 23.8252 66.9285 23.3585 66.9285 22.8645C66.9285 22.3704 66.8389 21.9546 66.6624 21.5935C66.4847 21.2324 66.229 20.9548 65.893 20.7606C65.5582 20.5663 65.1559 20.4686 64.6875 20.4686C64.219 20.4686 63.7947 20.5624 63.3911 20.7488C62.9876 20.9352 62.6359 21.1946 62.3375 21.527C62.039 21.8594 61.8042 22.2427 61.6355 22.6767C61.4655 23.1108 61.3811 23.5749 61.3811 24.0702C61.3811 24.5656 61.472 24.9814 61.6536 25.3412C61.8353 25.7022 62.0961 25.9799 62.4348 26.1741C62.7735 26.3683 63.1731 26.4661 63.6338 26.4661L63.6351 26.4661Z" fill="white"/>
</svg>
